# AST/ASF file generated using VICON BodyLanguage
# -----------------------------------------------
:version 1.10
:name VICON
:units
  mass 1.0
  length 0.45
  angle deg
:documentation
   .ast/.asf automatically generated from VICON data using
   VICON BodyBuilder and BodyLanguage model FoxedUp or BRILLIANT.MOD
:root
   order TX TY TZ RX RY RZ
   axis XYZ
   position 0 0 0  
   orientation 0 -0 0 
:bonedata
  begin
     id 1 
     name lhipjoint
     direction 0.500677 -0.737119 0.453848 
     length 2.34727 
     axis 0 -0 0  XYZ
  end
  begin
     id 2 
     name lfemur
     direction 0.34202 -0.939693 0  
     length 7.53653  
     axis 0 -0 20  XYZ
    dof rx ry rz
    limits (-160.0 20.0)
           (-70.0 70.0)
           (-60.0 70.0)
  end
  begin
     id 3 
     name ltibia
     direction 0.34202 -0.939693 0   
     length 6.85572   
     axis 0 -0 20   XYZ
    dof rx
    limits (-10.0 170.0)
  end
  begin
     id 4 
     name lfoot
     direction 0.155313 -0.426718 0.890949   
     length 2.18324   
     axis -90 -1.13533e-015 20   XYZ
    dof rx rz
    limits (-45.0 90.0)
           (-70.0 20.0)
  end
  begin
     id 5 
     name ltoes
     direction 1.53474e-011 -4.21647e-011 1   
     length 1.06748   
     axis -90 -1.13533e-015 20   XYZ
    dof rx
    limits (-90.0 20.0)
  end
  begin
     id 6 
     name rhipjoint
     direction -0.632471 -0.659587 0.406111   
     length 2.62319  
     axis 0 -0 0  XYZ 
  end
  begin
     id 7 
     name rfemur
     direction -0.34202 -0.939693 0   
     length 7.21735   
     axis 0 -0 -20   XYZ
    dof rx ry rz
    limits (-160.0 20.0)
           (-70.0 70.0)
           (-70.0 60.0)
  end
  begin
     id 8 
     name rtibia
     direction -0.34202 -0.939693 0   
     length 7.02558   
     axis 0 -0 -20   XYZ
    dof rx
    limits (-10.0 170.0)
 end
 begin
     id 9 
     name rfoot
     direction -0.16057 -0.441164 0.882945   
     length 2.10014  
     axis -90 1.13533e-015 -20   XYZ
    dof rx rz
    limits (-45.0 90.0)
           (-20.0 70.0)
  end
  begin
     id 10 
     name rtoes
     direction -1.53553e-011 -4.2192e-011 1   
     length 1.02554   
     axis -90 1.13533e-015 -20   XYZ
    dof rx
    limits (-90.0 20.0)
  end
  begin
     id 11 
     name lowerback
     direction 0.0401429 0.998861 -0.0258085   
     length 1.80848   
     axis 0 -0 0   XYZ
    dof rx ry rz
    limits (-20.0 45.0)
           (-30.0 30.0)
           (-30.0 30.0)
  end
  begin
     id 12 
     name upperback
     direction -0.0130978 0.999914 -0.000352645   
     length 1.8116   
     axis 0 -0 0   XYZ
    dof rx ry rz
    limits (-20.0 45.0)
           (-30.0 30.0)
           (-30.0 30.0)
  end
  begin
     id 13 
     name thorax
     direction -0.0300198 0.999453 0.0138573   
     length 1.81778   
     axis 0 -0 0   XYZ
    dof rx ry rz
    limits (-20.0 45.0)
           (-30.0 30.0)
           (-30.0 30.0)
  end
  begin
     id 14 
     name lowerneck
     direction -0.0401726 0.999191 -0.00173647   
     length 2.10594   
     axis 0 -0 0   XYZ
    dof rx ry rz
    limits (-20.0 45.0)
           (-30.0 30.0)
           (-30.0 30.0)
  end
  begin
     id 15 
     name upperneck
     direction 0.0119835 0.998501 0.0534085   
     length 2.07325   
     axis 0 -0 0   XYZ
    dof rx ry rz
    limits (-20.0 45.0)
           (-30.0 30.0)
           (-30.0 30.0)
  end
  begin
     id 16
     name head
     direction 0.00628309 0.999826 0.0175921  
     length 2.15096  
     axis 0 -0 0   XYZ
    dof rx ry rz
    limits (-20.0 45.0)
           (-30.0 30.0)
           (-30.0 30.0)
  end
  begin
     id 17 
     name lclavicle
     direction 0.895501 0.429681 -0.115981  
     length 4.18092  
     axis 0 -0 0   XYZ
    dof ry rz
    limits (-20.0 10.0)
           (0.0 20.0)
  end
  begin
     id 18 
     name lhumerus
     direction 1 -4.48961e-011 -3.38433e-028   
     length 5.77237   
     axis 180 -30 -90   XYZ
    dof rx ry rz
    limits (-60.0 90.0)
           (-90.0 90.0)
           (-90.0 90.0)
  end
  begin
     id 19
     name lradius
     direction 1 -4.4901e-011 1.11983e-026   
     length 2.91878   
     axis 180 -30 -90   XYZ
    dof rx
    limits (-10.0 170.0)
  end
  begin
     id 20
     name lwrist
     direction 1 -4.48934e-011 1.88176e-026   
     length 1.45939   
     axis -1.23311e-014 90 90   XYZ
    dof ry
    limits (-180.0 0.0)
 end
  begin
     id 21 
     name lhand
     direction 1 -4.4895e-011 3.76352e-026   
     length 1.06566   
     axis -2.40147e-014 90 90   XYZ
    dof rx rz
    limits (-90.0 90.0)
           (-45.0 45.0)
  end
  begin
     id 22 
     name lfingers
     direction 1 -4.49005e-011 7.52705e-026   
     length 0.859162   
     axis -4.80295e-014 90 90   XYZ
    dof rx
    limits (0.0 90.0)
  end
  begin
     id 23
     name lthumb
     direction 0.707107 -6.34885e-011 0.707107   
     length 1.23359   
     axis -90 45 -9.86935e-015   XYZ
    dof rx rz
    limits (-45.0 45.0)
           (-45.0 45.0)
  end
  begin
     id 24 
     name rclavicle
     direction -0.91006 0.40451 -0.0903492   
     length 4.23293  
     axis 0 -0 0   XYZ 
    dof ry rz
    limits (-10.0 20.0)
           (-20.0 0.0)
  end
  begin
     id 25 
     name rhumerus
     direction -1 -4.4897e-011 1.7415e-027  
     length 5.49854   
     axis 180 30 90   XYZ
    dof rx ry rz
    limits (-90.0 60.0)
           (-90.0 90.0)
           (-90.0 90.0)
  end
  begin
     id 26 
     name rradius
     direction -1 -4.48963e-011 1.21259e-026   
     length 3.1186   
     axis 180 30 90   XYZ
    dof rx
    limits (-10.0 170.0)
  end
  begin
     id 27 
     name rwrist
     direction -1 -4.48967e-011 1.88176e-026   
     length 1.5593   
     axis -1.23311e-014 -90 -90   XYZ
    dof ry
    limits (-180.0 0.0)
  end
  begin
     id 28
     name rhand
     direction -1 -4.4895e-011 3.76352e-026   
     length 0.71207   
     axis -2.40147e-014 -90 -90   XYZ
    dof rx rz
    limits (-90.0 90.0)
           (-45.0 45.0)
  end
  begin
     id 29
     name rfingers
     direction -1 -4.49005e-011 7.52705e-026   
     length 0.574089   
     axis -4.80295e-014 -90 -90   XYZ
    dof rx
    limits (0.0 90.0)
  end
  begin
     id 30
     name rthumb
     direction -0.707107 -6.34982e-011 0.707107   
     length 0.824281   
     axis -90 -45 9.86935e-015   XYZ
    dof rx rz
    limits (-45.0 45.0)
           (-45.0 45.0)
  end
:hierarchy
  begin
    root lhipjoint rhipjoint lowerback
    lhipjoint lfemur
    lfemur ltibia
    ltibia lfoot
    lfoot ltoes
    rhipjoint rfemur
    rfemur rtibia
    rtibia rfoot
    rfoot rtoes
    lowerback upperback
    upperback thorax
    thorax lowerneck lclavicle rclavicle
    lowerneck upperneck
    upperneck head
    lclavicle lhumerus
    lhumerus lradius
    lradius lwrist
    lwrist lhand lthumb
    lhand lfingers
    rclavicle rhumerus
    rhumerus rradius
    rradius rwrist
    rwrist rhand rthumb
    rhand rfingers
  end

#!OML:ASF C:\ViconDB\ViconDB\414\Spring2016\042216\male.ASF
:FULLY-SPECIFIED
:DEGREES
329
root -21.6448 17.0159 12.6069 -120.766 79.2268 -139.914
lowerback -1.34714 0.0827954 11.9131
upperback 0.0052203 -0.0527177 -0.0691965
thorax 0.753136 0.0283521 -6.76746
lowerneck -0.51742 -1.66119 -6.15629
upperneck -24.2878 -0.606205 5.48774
head -7.2693 0.218648 2.84115
rclavicle -6.55989e-015 -4.37326e-015
rhumerus -17.3951 30.1353 -91.6895
rradius 98.4585
rwrist 5.68422
rhand 5.41307 -23.5498
rfingers 7.12502
rthumb 30.7639 -50.996
lclavicle -6.55989e-015 -4.37326e-015
lhumerus -49.0648 6.00222 80.9663
lradius 76.2318
lwrist 19.8249
lhand -27.614 10.0575
lfingers 7.12502
lthumb -1.01312 40.0349
rfemur 22.9912 5.38681 33.6226
rtibia -1.90833e-014
rfoot 23.0112 -5.0068
rtoes -16.2637
lfemur -50.4028 -3.14157 -14.6537
ltibia 44.0322
lfoot -25.6079 3.30633
ltoes -15.491
330
root -21.1972 16.9781 12.6126 -120.668 79.0205 -139.008
lowerback -0.879396 0.0094781 11.8613
upperback 0.0393258 -0.0863054 0.0317802
thorax 0.518182 -0.000312892 -6.63072
lowerneck -0.391757 -1.6419 -6.26131
upperneck -24.2305 -0.592237 5.5506
head -7.27201 0.22282 2.87971
rclavicle 2.15681e-014 -4.69132e-014
rhumerus -18.9705 29.9907 -92.4462
rradius 97.5578
rwrist 5.19609
rhand 5.22939 -23.7686
rfingers 7.12502
rthumb 30.5887 -51.2477
lclavicle 2.15681e-014 -4.69132e-014
lhumerus -48.737 6.19724 81.1375
lradius 75.9555
lwrist 20.8593
lhand -28.0272 10.1451
lfingers 7.12502
lthumb -1.41221 40.1202
rfemur 24.5421 5.42478 33.9121
rtibia -1.90833e-014
rfoot 24.5627 -6.54336
rtoes -16.6665
lfemur -48.6267 -3.17484 -14.6096
ltibia 43.6238
lfoot -24.346 2.60801
ltoes -15.2565
331
root -20.7455 16.9384 12.6157 -120.403 78.8035 -137.971
lowerback -0.460884 -0.11012 11.8834
upperback 0.0104441 -0.184507 0.101901
thorax 0.231623 -0.0667212 -6.56854
lowerneck -0.150609 -1.5677 -6.2692
upperneck -24.0817 -0.51321 5.63655
head -7.26916 0.239742 2.90541
rclavicle -2.17669e-014 -3.06128e-014
rhumerus -20.7311 29.6908 -93.4561
rradius 96.5094
rwrist 4.72316
rhand 5.14478 -24.3453
rfingers 7.12502
rthumb 30.5081 -51.8394
lclavicle -2.17669e-014 -3.06128e-014
lhumerus -48.4114 6.2917 81.261
lradius 75.6287
lwrist 21.155
lhand -28.2451 10.2159
lfingers 7.12502
lthumb -1.62268 40.1895
rfemur 17.4729 5.43874 34.167
rtibia 17.3235
rfoot 17.1921 -8.54988
rtoes -18.0313
lfemur -46.7472 -3.25162 -14.571
ltibia 44.1209
lfoot -22.9833 3.45938
ltoes -15.899
332
root -20.292 16.8939 12.6146 -120.377 78.9237 -137.227
lowerback -0.0647843 -0.231316 11.5931
upperback -0.000706506 -0.291251 0.0974728
thorax -0.0236679 -0.135958 -6.40842
lowerneck -0.0990069 -1.49869 -6.24543
upperneck -23.7945 -0.439528 5.69779
head -7.1876 0.253546 2.91381
rclavicle 8.94531e-015 -2.06736e-014
rhumerus -22.3551 29.1521 -94.5649
rradius 95.0931
rwrist 4.45363
rhand 5.04738 -24.485
rfingers 7.12502
rthumb 30.4152 -51.9963
lclavicle 8.94531e-015 -2.06736e-014
lhumerus -47.8939 6.47306 81.4523
lradius 75.39
lwrist 20.7451
lhand -28.1957 10.4256
lfingers 7.12502
lthumb -1.5749 40.3995
rfemur 14.2812 4.81659 33.6243
rtibia 26.2411
rfoot 14.3296 -9.83239
rtoes -18.182
lfemur -44.4658 -3.04262 -15.0285
ltibia 45.019
lfoot -22.1016 6.14811
ltoes -7.18899
333
root -19.834 16.8325 12.6038 -118.856 79.0123 -134.919
lowerback 0.312054 -0.298469 11.658
upperback 0.00251746 -0.328541 0.131047
thorax -0.240534 -0.166394 -6.40757
lowerneck 0.108494 -1.36078 -6.22333
upperneck -23.6025 -0.293586 5.67845
head -7.17099 0.307433 2.89463
rclavicle 6.16232e-015 3.18055e-014
rhumerus -23.9568 28.4843 -95.5332
rradius 93.4736
rwrist 4.25339
rhand 5.13352 -24.6694
rfingers 7.12502
rthumb 30.4973 -52.1655
lclavicle 6.16232e-015 3.18055e-014
lhumerus -47.3205 6.39732 81.838
lradius 75.5306
lwrist 20.8459
lhand -28.4817 10.6747
lfingers 7.12502
lthumb -1.8511 40.6465
rfemur 11.6315 4.27997 33.1516
rtibia 33.8654
rfoot 12.5451 -10.7848
rtoes -18.2578
lfemur -42.0752 -3.23588 -14.9443
ltibia 46.2628
lfoot -25.4456 9.63173
ltoes -15.0756
334
root -19.3746 16.8222 12.6014 -120.368 79.4353 -135.693
lowerback 0.96671 -0.5494 10.8935
upperback -0.0589757 -0.582391 0.0873628
thorax -0.716523 -0.32188 -6.01537
lowerneck 0.512813 -1.15339 -6.35088
upperneck -23.5647 -0.0350054 5.81592
head -7.24536 0.414977 2.95009
rclavicle 9.93923e-016 -2.0276e-014
rhumerus -25.5601 27.7875 -96.5073
rradius 91.5921
rwrist 3.85093
rhand 5.14361 -24.6648
rfingers 7.12502
rthumb 30.5069 -52.159
lclavicle 9.93923e-016 -2.0276e-014
lhumerus -46.676 6.3425 82.3984
lradius 75.9678
lwrist 20.8962
lhand -28.7793 10.7209
lfingers 7.12502
lthumb -2.13856 40.6899
rfemur 9.01938 3.49369 32.0624
rtibia 40.8835
rfoot 11.0217 -11.6804
rtoes -17.1252
lfemur -39.8576 -3.01202 -15.7658
ltibia 47.3088
lfoot -30.041 8.30583
ltoes -25.7492
335
root -18.9349 16.7613 12.5874 -120.227 79.7259 -134.873
lowerback 1.45586 -0.782583 10.5761
upperback 0.00360302 -0.840677 0.100608
thorax -0.969266 -0.46053 -5.81203
lowerneck 0.695284 -0.932232 -6.3593
upperneck -23.6235 0.248085 5.78121
head -7.31671 0.547973 2.92552
rclavicle 2.38542e-015 -1.03368e-014
rhumerus -26.937 27.1066 -97.2926
rradius 89.5714
rwrist 3.45282
rhand 4.8473 -24.6178
rfingers 7.12502
rthumb 30.2243 -52.1642
lclavicle 2.38542e-015 -1.03368e-014
lhumerus -45.5777 6.38066 83.0752
lradius 76.5444
lwrist 20.9919
lhand -29.0359 10.8059
lfingers 7.12502
lthumb -2.3864 40.7723
rfemur 6.17009 2.4938 30.9416
rtibia 47.7274
rfoot 9.70072 -11.9181
rtoes -16.3579
lfemur -37.8322 -3.40538 -15.9572
ltibia 48.2234
lfoot -30.4037 9.94475
ltoes -22.6387
336
root -18.5031 16.6998 12.5685 -120.802 80.2953 -134.713
lowerback 2.13059 -1.04929 10.0245
upperback 0.102397 -1.13438 0.0593672
thorax -1.28807 -0.617327 -5.52672
lowerneck 0.76977 -0.655499 -6.41311
upperneck -23.7417 0.599707 5.64056
head -7.3943 0.731511 2.86872
rclavicle 2.38542e-015 -4.81059e-014
rhumerus -28.2422 26.294 -97.9237
rradius 87.3289
rwrist 3.18245
rhand 4.65265 -24.057
rfingers 7.12502
rthumb 30.0386 -51.6372
lclavicle 2.38542e-015 -4.81059e-014
lhumerus -44.2948 6.34374 84.0324
lradius 77.4082
lwrist 21.0014
lhand -29.6522 11.0088
lfingers 7.12502
lthumb -2.9816 40.9677
rfemur 3.16452 1.37759 29.3889
rtibia 54.4281
rfoot 8.32326 -11.4613
rtoes -15.8398
lfemur -35.4089 -4.05519 -16.3394
ltibia 48.6171
lfoot -30.5353 12.9014
ltoes -19.1673
337
root -18.0886 16.6464 12.5568 -124.815 81.4291 -138.109
lowerback 2.84609 -1.3733 8.59978
upperback 0.215966 -1.54557 -0.206964
thorax -1.61034 -0.827881 -4.97381
lowerneck 0.786175 -0.401148 -6.49122
upperneck -23.899 0.965613 5.678
head -7.47438 0.91256 2.87391
rclavicle 2.14687e-014 1.82882e-014
rhumerus -29.4556 25.2205 -98.402
rradius 84.9013
rwrist 2.87157
rhand 4.47958 -23.7905
rfingers 7.12502
rthumb 29.8735 -51.4006
lclavicle 2.14687e-014 1.82882e-014
lhumerus -42.7322 6.24862 85.0328
lradius 78.5875
lwrist 21.2307
lhand -29.898 11.3234
lfingers 7.12502
lthumb -3.21897 41.2789
rfemur -0.24093 0.124312 26.9877
rtibia 61.078
rfoot 6.95303 -10.6379
rtoes -15.7743
lfemur -32.8858 -5.06972 -17.4857
ltibia 48.6599
lfoot -32.2994 13.8227
ltoes -19.8652
